<svg xmlns="http://www.w3.org/2000/svg" xmlns:xlink="http://www.w3.org/1999/xlink" viewBox="0 0 1792 1792"><defs><style>.cls-1{fill:none;}.cls-2{fill:#66ace8;}.cls-3{fill:url(#linear-gradient);}.cls-4{fill:#7fcaff;}.cls-5{fill:url(#linear-gradient-2);}.cls-6{fill:url(#linear-gradient-3);}</style><linearGradient id="linear-gradient" x1="847.94" y1="305.98" x2="1324.55" y2="782.59" gradientUnits="userSpaceOnUse"><stop offset="0" stop-opacity="0.5"/><stop offset="1" stop-opacity="0"/></linearGradient><linearGradient id="linear-gradient-2" x1="1392.35" y1="713.75" x2="1267.63" y2="589.02" gradientUnits="userSpaceOnUse"><stop offset="0" stop-color="#66ace8" stop-opacity="0.5"/><stop offset="1" stop-color="#7fcaff" stop-opacity="0"/></linearGradient><linearGradient id="linear-gradient-3" x1="285.39" y1="1064.75" x2="1158.49" y2="1064.75" xlink:href="#linear-gradient"/></defs><g id="Layer_3" data-name="Layer 3"><g id="Layer_5" data-name="Layer 5"><rect class="cls-1" width="1792" height="1792"/></g><polygon class="cls-2" points="549.64 604.36 798.1 358.22 1501.76 358.32 1502.85 604.36 549.64 604.36"/><polygon class="cls-3" points="548.4 605.52 796.86 359.38 1500.53 359.48 1501.61 605.52 548.4 605.52"/><polygon class="cls-4" points="1159.18 945.71 1502.85 602.04 1501.76 356 1158.1 697.35 1159.18 945.71"/><polygon class="cls-5" points="1159.28 946.82 1502.95 603.15 1501.86 357.11 1158.19 698.46 1159.28 946.82"/><polygon class="cls-2" points="1158.49 945.06 1157.47 696.7 1157.4 696.7 1157.4 696.66 907.71 696.11 907.7 697 285.39 697.76 500.72 945.06 907.18 945.06 906.54 1251.16 1157.33 1433.86 1157.38 945.06 1158.49 945.06"/><polygon class="cls-6" points="1158.49 944.83 1157.47 696.47 1157.4 696.47 1157.4 696.43 907.71 695.88 907.7 696.77 285.39 697.53 500.72 944.83 907.18 944.83 906.54 1250.93 1157.33 1433.63 1157.38 944.83 1158.49 944.83"/><polygon class="cls-4" points="286.08 698.41 499.71 944.55 525.6 945.71 309.8 698.41 286.08 698.41"/><polygon class="cls-4" points="338.3 698.41 551.93 944.55 577.82 945.71 362.02 698.41 338.3 698.41"/><polygon class="cls-4" points="389.39 698.41 603.02 944.55 628.91 945.71 413.1 698.41 389.39 698.41"/></g><g id="Layer_2" data-name="Layer 2"><polygon class="cls-4" points="1473.68 385.31 1407.53 356.51 1502.69 356.51 1473.68 385.31"/><polygon class="cls-4" points="1159.02 774.38 1080.07 697.75 1158.94 696.81 1159.02 774.38"/></g></svg>